<svg width="20" height="20" viewBox="0 0 20 20" fill="none" xmlns="http://www.w3.org/2000/svg">
<g opacity="0.8">
<circle cx="10" cy="10" r="10" fill="#182DEF"/>
<path d="M5.39135 9.01743C6.98819 9.01743 8.28269 7.78496 8.28269 6.26464C8.28269 4.74431 6.98819 3.51184 5.39135 3.51184C3.7945 3.51184 2.5 4.74431 2.5 6.26464C2.5 7.78496 3.7945 9.01743 5.39135 9.01743Z" fill="#EDEFFF"/>
<path d="M5.61373 8.02388C6.63428 8.02388 7.4616 7.23626 7.4616 6.26469C7.4616 5.29311 6.63428 4.50549 5.61373 4.50549C4.59319 4.50549 3.76587 5.29311 3.76587 6.26469C3.76587 7.23626 4.59319 8.02388 5.61373 8.02388Z" fill="#182DEF"/>
<path d="M15.3008 8.17836C16.3758 7.10332 16.4119 5.39644 15.3814 4.36593C14.3509 3.33542 12.644 3.37151 11.569 4.44655C10.4939 5.52158 10.4578 7.22846 11.4883 8.25897C12.5189 9.28948 14.2257 9.25339 15.3008 8.17836Z" fill="#EDEFFF"/>
<path d="M15.1313 7.81746C15.8183 7.13045 15.7902 5.98852 15.0686 5.26688C14.3469 4.54525 13.205 4.51718 12.518 5.20418C11.831 5.89119 11.859 7.03312 12.5807 7.75476C13.3023 8.47639 14.4443 8.50447 15.1313 7.81746Z" fill="#182DEF"/>
<path d="M15.6162 9.85039C15.6162 9.85039 15.9661 5.62341 10.9395 4.73511C5.9129 3.8468 2.85767 8.44034 4.07137 11.0403C4.07137 11.0403 3.12131 11.7529 3.65968 13.9436C4.19804 16.1342 9.76935 17.2585 12.7161 16.2182C15.6629 15.1778 17.6287 12.4314 15.6162 9.85039Z" fill="#EDEFFF"/>
<path d="M12.8408 11.6959C12.8408 12.129 12.3888 12.6111 11.8314 12.6111C11.3983 12.6111 10.8212 12.129 10.8212 11.6959C10.8212 11.2628 11.2732 10.9121 11.8314 10.9121C12.3896 10.9121 12.8408 11.2628 12.8408 11.6959Z" fill="#182DEF"/>
<path d="M14.8356 12.4305C14.8433 12.859 14.7323 13.2812 14.5149 13.6505C14.2986 14.0161 14.0069 14.3314 13.6591 14.5752C12.9639 15.0581 12.1295 15.2995 11.2839 15.2625C10.8587 15.2515 10.4388 15.1646 10.0441 15.0059C9.64797 14.844 9.28631 14.6081 8.97846 14.3108C8.67667 14.0133 8.43171 13.6631 8.25562 13.2776C8.21683 13.1794 8.17645 13.0836 8.14082 12.9847L8.09411 12.8351C8.07752 12.7857 8.06377 12.7355 8.05294 12.6846C8.02558 12.5805 8.00469 12.4747 7.9904 12.3679C7.98342 12.3112 7.97998 12.2541 7.98011 12.1969C7.98011 12.1399 7.98565 12.0837 7.98881 12.0275C8.01617 11.8103 8.081 11.5995 8.18041 11.4044C8.27439 11.2176 8.38998 11.0425 8.52481 10.8827C8.78829 10.5739 9.09715 10.307 9.44082 10.091C10.1162 9.66502 10.8912 9.38792 11.6885 9.37842C12.4901 9.38988 13.2561 9.71104 13.8261 10.2746C14.1171 10.5526 14.3564 10.8799 14.5331 11.2413C14.7163 11.6121 14.8193 12.0173 14.8356 12.4305ZM14.4833 12.4305C14.4901 12.06 14.4292 11.6913 14.3035 11.3427C14.178 10.984 13.9853 10.6524 13.7359 10.3657C13.4836 10.0754 13.1688 9.84616 12.8151 9.6951C12.459 9.55053 12.0766 9.48203 11.6925 9.49401C11.3094 9.51092 10.932 9.59257 10.5761 9.73548C10.2207 9.87459 9.88572 10.061 9.58016 10.2897C9.27679 10.5109 9.00969 10.778 8.78845 11.0814C8.57785 11.3807 8.42584 11.7227 8.41476 12.056C8.41476 12.0972 8.41476 12.1352 8.41476 12.1787C8.41798 12.2191 8.42327 12.2592 8.43059 12.2991C8.44896 12.3842 8.47222 12.4683 8.50026 12.5508C8.51246 12.5945 8.52754 12.6374 8.54539 12.6791L8.59527 12.8058C8.6301 12.8889 8.67444 12.9689 8.71086 13.0504C8.87622 13.3679 9.0981 13.6525 9.36561 13.8904C9.90306 14.3667 10.5928 14.6357 11.3109 14.6489C12.0281 14.6774 12.766 14.5254 13.3804 14.1509C13.6877 13.9673 13.9516 13.7194 14.1539 13.4241C14.3533 13.1297 14.4673 12.7857 14.4833 12.4305Z" fill="#182DEF"/>
<path d="M6.71303 6.39832L5.90025 8.89939L3.52332 9.91798L5.5115 10.8327L5.56312 11.8278L5.40696 13.2697L7.4546 11.7278L9.80671 12.4929L9.2422 11.0039C9.2422 11.0039 10.9351 9.51486 12.2333 9.786C13.5315 10.0571 13.9895 10.8033 13.9895 10.8033C13.9895 10.8033 14.1986 11.5971 14.1006 12.3361L14.3548 12.5445C14.3548 12.5445 15.2727 11.8258 15.6412 11.1195L16.5801 13.2756C16.5801 13.2756 16.7885 12.6732 16.7637 12.1943C16.7637 12.1943 16.6618 10.8954 16.3665 10.2649L16.8826 9.54622C16.5572 9.1651 16.1455 8.86718 15.6817 8.67725C15.6817 8.67725 15.2773 7.01574 14.49 6.43164L13.9895 6.40028C13.9895 6.40028 13.9007 7.79259 13.7511 8.12842C13.7511 8.12842 12.6247 8.09314 12.1399 8.29438L11.9073 8.64196L12.7566 9.22999C12.7566 9.22999 11.0978 8.94055 9.7368 9.65925L10.711 8.85235L10.7652 8.31267L8.03217 8.22381L6.71303 6.39832Z" fill="#EDEFFF"/>
<path d="M6.71686 6.42245C6.58619 6.85563 6.4725 7.28685 6.36339 7.70566C6.25428 8.12446 6.14843 8.53151 6.03671 8.93398C6.03158 8.95221 6.02231 8.96901 6.00961 8.98306C5.99692 8.99712 5.98115 9.00805 5.96353 9.015L3.53302 9.94016V9.89573L5.60091 10.6144C5.64281 10.6289 5.67837 10.6574 5.70149 10.6952C5.72462 10.733 5.73388 10.7777 5.72767 10.8215L5.43104 13.2736L5.39184 13.2534L7.37283 11.62C7.38985 11.6058 7.41029 11.5965 7.43209 11.5928C7.45389 11.5891 7.47627 11.5913 7.49697 11.599L9.81576 12.4726L9.7857 12.5046L8.75862 10.0375C8.74995 10.0167 8.74819 9.99367 8.7536 9.97179C8.75901 9.94991 8.77131 9.93035 8.78867 9.91598L10.7488 8.2976L10.7644 8.34007L7.96348 8.37731C7.93969 8.37766 7.91622 8.37183 7.89538 8.36037C7.87453 8.34892 7.85702 8.33224 7.84456 8.31198C7.66554 8.01535 7.49044 7.71154 7.30619 7.39727C7.12194 7.083 6.92593 6.74783 6.71686 6.42245ZM6.70967 6.37476C6.9194 6.65701 7.14154 6.9373 7.37675 7.22935C7.61197 7.52141 7.85567 7.82457 8.09545 8.13557L7.97524 8.07023L10.7677 8.28911C10.771 8.28936 10.7742 8.29025 10.7771 8.29173C10.78 8.29321 10.7826 8.29526 10.7847 8.29775C10.7868 8.30024 10.7885 8.30312 10.7895 8.30624C10.7905 8.30935 10.7908 8.31264 10.7906 8.3159C10.79 8.32192 10.7872 8.32752 10.7827 8.33158L8.93372 10.0774L8.96639 9.95649L9.83405 12.4876C9.83518 12.4906 9.83568 12.4938 9.83552 12.497C9.83537 12.5002 9.83456 12.5033 9.83315 12.5062C9.83175 12.5091 9.82977 12.5116 9.82734 12.5137C9.82491 12.5158 9.82208 12.5174 9.81903 12.5183C9.81438 12.52 9.8093 12.52 9.80465 12.5183L7.41269 11.8597L7.53618 11.8395L5.42124 13.2919C5.41858 13.2938 5.41557 13.2951 5.41239 13.2959C5.40921 13.2966 5.40592 13.2967 5.40271 13.2961C5.39949 13.2956 5.39641 13.2944 5.39365 13.2927C5.39089 13.291 5.3885 13.2887 5.38661 13.286C5.38412 13.2819 5.38276 13.2771 5.38269 13.2723L5.29775 10.8039L5.42451 11.0097L3.51342 9.94016C3.5106 9.9386 3.50813 9.93649 3.50614 9.93396C3.50415 9.93143 3.50269 9.92852 3.50184 9.92542C3.50099 9.92232 3.50076 9.91908 3.50118 9.91588C3.5016 9.91269 3.50265 9.90962 3.50427 9.90684C3.50671 9.90244 3.51033 9.89882 3.51473 9.89638L5.86095 8.77325L5.78778 8.85362C5.94393 8.42436 6.10531 7.99902 6.26277 7.58674C6.42023 7.17447 6.5705 6.77069 6.70967 6.37476Z" fill="#182DEF"/>
<path d="M14.3339 8.24212C14.3252 8.24475 14.3159 8.24475 14.3072 8.24212H14.2967H14.2797L14.2464 8.23558L14.1778 8.22317C14.1327 8.21664 14.087 8.2101 14.0406 8.20553C13.9491 8.19638 13.857 8.1905 13.7649 8.18724C13.5803 8.18168 13.3956 8.1856 13.2115 8.199C13.0272 8.21076 12.8443 8.23624 12.6607 8.26107C12.6149 8.26564 12.5692 8.27413 12.5235 8.28067L12.385 8.29831C12.2928 8.31137 12.2007 8.32444 12.106 8.33098L12.1105 8.28589C12.3249 8.38782 12.5333 8.49758 12.7404 8.61258C12.9475 8.72757 13.152 8.84779 13.3513 8.9765C13.5506 9.10521 13.7479 9.23784 13.9354 9.38877C14.127 9.53708 14.3059 9.70097 14.4705 9.87879C14.4823 9.89273 14.49 9.90971 14.4927 9.9278C14.5247 10.1519 14.5437 10.3695 14.558 10.5903C14.5724 10.8111 14.5744 11.0313 14.5705 11.2522C14.5665 11.473 14.5502 11.6925 14.5254 11.9114C14.4986 12.13 14.458 12.3467 14.4039 12.5602L14.3647 12.536C14.4698 12.4145 14.579 12.2975 14.6874 12.1812L15.0141 11.8323C15.1212 11.7154 15.2277 11.5998 15.3297 11.4808C15.4349 11.3642 15.5325 11.2409 15.6217 11.1117C15.6231 11.1087 15.6251 11.106 15.6275 11.1038C15.63 11.1016 15.6328 11.0999 15.6359 11.0988C15.639 11.0978 15.6423 11.0973 15.6456 11.0975C15.6489 11.0977 15.6521 11.0985 15.655 11.0999C15.66 11.1024 15.6641 11.1062 15.6668 11.111L16.705 13.2214L16.4633 13.2181C16.4731 13.1985 16.4855 13.1685 16.4959 13.141C16.5064 13.1136 16.5162 13.0842 16.5266 13.0554C16.5371 13.0267 16.5443 12.9966 16.5534 12.9672C16.5626 12.9378 16.5711 12.9078 16.5776 12.8777L16.5992 12.7869L16.6168 12.6948C16.6299 12.634 16.6364 12.5713 16.6455 12.5092C16.6755 12.2575 16.6823 12.0036 16.6658 11.7507L16.6495 11.5605C16.6455 11.4952 16.6325 11.4338 16.6246 11.3704C16.609 11.243 16.5809 11.1182 16.5547 10.9928C16.5436 10.9274 16.5253 10.868 16.509 10.8053L16.4593 10.6191C16.4214 10.4962 16.379 10.3747 16.3385 10.2519C16.3372 10.2478 16.3371 10.2434 16.3381 10.2393C16.3392 10.2351 16.3413 10.2314 16.3443 10.2283C16.4372 10.1176 16.5244 10.0022 16.6057 9.88271C16.6872 9.76674 16.7576 9.64337 16.8161 9.51422L16.8246 9.59654C16.7484 9.49802 16.6664 9.4042 16.5789 9.31559C16.491 9.22447 16.3981 9.13831 16.3006 9.05752C16.2026 8.97901 16.0991 8.90761 15.9909 8.84387C15.8818 8.78092 15.7666 8.72904 15.6472 8.68902C15.6435 8.6878 15.6401 8.68575 15.6372 8.68304C15.6344 8.68032 15.6322 8.67701 15.6309 8.67334C15.5655 8.46688 15.4917 8.26237 15.4133 8.06179C15.3937 8.01148 15.3747 7.96117 15.3532 7.91152C15.3316 7.86186 15.3127 7.81221 15.2879 7.76386C15.263 7.71551 15.2454 7.6652 15.2225 7.61685L15.152 7.47311C15.055 7.28395 14.9459 7.10128 14.8253 6.92624C14.7051 6.75245 14.577 6.58846 14.4333 6.42054L14.4718 6.4029C14.4966 6.56081 14.5045 6.72092 14.4953 6.88051C14.4921 6.96087 14.4842 7.03993 14.4764 7.11899C14.4685 7.19804 14.462 7.27645 14.4529 7.35485C14.4352 7.51035 14.4156 7.66455 14.3947 7.81221C14.3738 7.95987 14.3568 8.10557 14.3339 8.24212ZM14.3078 8.20161V7.72139C14.3078 7.56654 14.3111 7.41627 14.315 7.26861C14.315 7.19412 14.3215 7.1216 14.3241 7.04842C14.3268 6.97525 14.3313 6.90207 14.3385 6.8302C14.3524 6.68281 14.3822 6.53736 14.4274 6.39637L14.4313 6.38461C14.4321 6.38208 14.4334 6.37975 14.4351 6.37775C14.4369 6.37574 14.439 6.37411 14.4414 6.37295C14.4438 6.37179 14.4464 6.37113 14.449 6.371C14.4516 6.37087 14.4543 6.37127 14.4568 6.37219C14.4604 6.37343 14.4636 6.3757 14.4659 6.37873C14.6664 6.48432 14.8416 6.63211 14.9795 6.81191C15.0121 6.85699 15.0448 6.90272 15.0768 6.94911C15.0932 6.97196 15.1083 6.99574 15.1219 7.02033L15.1637 7.09285C15.1925 7.14055 15.2206 7.1889 15.2447 7.23921C15.2689 7.28951 15.297 7.33786 15.3192 7.38883C15.4112 7.59053 15.4879 7.79889 15.5485 8.01213C15.611 8.22393 15.6547 8.44081 15.6792 8.66027L15.6622 8.64132C15.7865 8.6755 15.9073 8.72144 16.0229 8.77853C16.1393 8.83546 16.2514 8.90098 16.3581 8.97454C16.4647 9.04943 16.5671 9.13036 16.6645 9.21694C16.7627 9.30362 16.8557 9.39613 16.9428 9.49396C16.9527 9.50491 16.9589 9.51868 16.9605 9.53333C16.9622 9.54798 16.9592 9.56277 16.952 9.57563C16.8745 9.70462 16.7848 9.82584 16.6841 9.9376C16.5867 10.0485 16.4837 10.1545 16.3757 10.2551L16.3809 10.229C16.4299 10.3492 16.4809 10.4694 16.5279 10.591L16.5933 10.7759C16.6142 10.8373 16.637 10.8987 16.6527 10.9621C16.688 11.0882 16.7259 11.2136 16.7507 11.3423C16.7638 11.4077 16.7808 11.473 16.7899 11.5383L16.8206 11.7343C16.856 11.9972 16.8671 12.2627 16.854 12.5275C16.8494 12.5929 16.8468 12.6582 16.8376 12.7268L16.8259 12.8268L16.8089 12.9267C16.8037 12.9601 16.7971 12.9921 16.7893 13.026C16.7814 13.06 16.7762 13.0914 16.7664 13.1254C16.7566 13.1593 16.7494 13.1907 16.7383 13.2253C16.7272 13.2599 16.7181 13.2907 16.7024 13.3292C16.6892 13.3609 16.6641 13.3862 16.6324 13.3995C16.6007 13.4129 16.5651 13.4132 16.5332 13.4004C16.5172 13.3939 16.5027 13.3843 16.4905 13.3722C16.4783 13.3601 16.4686 13.3457 16.4619 13.3299L15.6224 11.1333H15.6668C15.6557 11.1725 15.6426 11.2123 15.6296 11.2522C15.6165 11.292 15.5956 11.328 15.5773 11.3652C15.5382 11.438 15.4946 11.5083 15.4466 11.5756C15.3528 11.7089 15.2486 11.8345 15.135 11.9513C15.0794 12.0101 15.0219 12.0669 14.9631 12.1218L14.8743 12.2048L14.7828 12.2838C14.6602 12.3896 14.5308 12.4871 14.3954 12.5759H14.3908C14.3883 12.5776 14.3854 12.5788 14.3824 12.5794C14.3795 12.58 14.3764 12.5799 14.3734 12.5793C14.3704 12.5787 14.3676 12.5775 14.3651 12.5758C14.3626 12.5741 14.3604 12.5719 14.3588 12.5693C14.3573 12.5662 14.3566 12.5627 14.3566 12.5592C14.3566 12.5557 14.3573 12.5523 14.3588 12.5491C14.3973 12.3357 14.4221 12.1201 14.4333 11.9036C14.4424 11.6866 14.4444 11.4704 14.4333 11.2541C14.4221 11.0379 14.4032 10.8222 14.3758 10.6073C14.3483 10.3923 14.3104 10.178 14.2693 9.97157L14.2941 10.0238C14.1493 9.84566 13.99 9.67979 13.8178 9.52794C13.6453 9.37244 13.461 9.2287 13.2735 9.08888C13.086 8.94906 12.8867 8.81642 12.6907 8.68902C12.4947 8.56161 12.2922 8.43878 12.0877 8.32444C12.085 8.32294 12.0826 8.32092 12.0807 8.3185C12.0787 8.31608 12.0773 8.31331 12.0765 8.31033C12.0756 8.30736 12.0754 8.30425 12.0757 8.30117C12.0761 8.2981 12.077 8.29513 12.0785 8.29243C12.0801 8.28945 12.0824 8.28687 12.0851 8.28484C12.0878 8.28281 12.0909 8.28138 12.0942 8.28067C12.1818 8.24473 12.2713 8.21533 12.3621 8.18658C12.4529 8.15783 12.5457 8.13889 12.6385 8.12125C12.7312 8.10361 12.8253 8.08858 12.9201 8.08139C12.9671 8.07682 13.0141 8.07094 13.0612 8.06702L13.2036 8.05852C13.3934 8.0497 13.5837 8.05494 13.7727 8.0742C13.8673 8.08456 13.9613 8.09982 14.0543 8.11994C14.1007 8.12974 14.1471 8.1415 14.1928 8.15391C14.2157 8.1611 14.2386 8.16698 14.2582 8.17482L14.2921 8.18724L14.3085 8.19377H14.315C14.3132 8.19431 14.3116 8.19533 14.3103 8.19671C14.3091 8.19809 14.3082 8.19978 14.3078 8.20161Z" fill="#182DEF"/>
<path d="M10.767 8.31274L10.7128 8.85242C10.7128 8.85242 9.60208 9.74426 8.98596 10.3258" stroke="#182DEF" stroke-width="0.130673" stroke-linecap="round" stroke-linejoin="round"/>
<path d="M9.57741 9.76587C9.83547 9.57219 10.1191 9.4152 10.4203 9.29937C10.5716 9.24094 10.7263 9.19163 10.8835 9.15171C11.0419 9.11258 11.2028 9.0842 11.365 9.06677C11.6926 9.02982 12.0241 9.04927 12.3451 9.12427L12.4052 9.13864L12.464 9.15693C12.5032 9.16935 12.5424 9.18176 12.5809 9.19548C12.6581 9.22361 12.7335 9.25611 12.807 9.29283C12.8429 9.31113 12.8802 9.32877 12.9154 9.34837L13.02 9.41371C13.0546 9.43483 13.088 9.45796 13.1199 9.48296C13.1526 9.50714 13.1853 9.53262 13.216 9.55745C13.2205 9.56208 13.223 9.56829 13.223 9.57476C13.223 9.58123 13.2205 9.58744 13.216 9.59207C13.2129 9.59599 13.2086 9.59885 13.2038 9.60025C13.199 9.60165 13.1939 9.60154 13.1892 9.59991C12.9005 9.48993 12.6025 9.40639 12.2987 9.35033C11.8462 9.27176 11.3833 9.27641 10.9325 9.36405C10.7804 9.39172 10.6299 9.42749 10.4817 9.4712C10.1809 9.55731 9.88815 9.66945 9.60682 9.80638C9.60109 9.80909 9.59452 9.80945 9.58854 9.80737C9.58255 9.80529 9.57762 9.80095 9.5748 9.79527C9.57203 9.79073 9.57079 9.78543 9.57126 9.78014C9.57173 9.77485 9.57389 9.76984 9.57741 9.76587Z" fill="#182DEF"/>
<path d="M9.22778 10.9896C9.37599 10.8146 9.53979 10.6534 9.71714 10.508C9.8047 10.4329 9.89682 10.3649 9.99025 10.297L10.1327 10.199C10.181 10.167 10.2307 10.1337 10.2797 10.1062C10.6809 9.85882 11.1277 9.69462 11.5936 9.62338C11.9497 9.56843 12.3136 9.59664 12.6569 9.7058C13.0003 9.81495 13.3137 10.0021 13.5726 10.2526C13.6572 10.3322 13.7364 10.4173 13.8098 10.5074C13.8815 10.5975 13.9484 10.6913 14.0104 10.7883C14.0134 10.7932 14.0146 10.799 14.0137 10.8046C14.0129 10.8103 14.01 10.8155 14.0057 10.8192C14.0014 10.823 13.9959 10.8251 13.9902 10.8252C13.9844 10.8253 13.9789 10.8233 13.9745 10.8197C13.6321 10.5224 13.2786 10.2584 12.8781 10.1029C12.6825 10.0233 12.477 9.9703 12.2672 9.94549C12.0573 9.91837 11.8447 9.91837 11.6348 9.94549C11.2049 10.0048 10.7876 10.1339 10.3993 10.3277L10.2516 10.4015L10.1046 10.4793C10.0079 10.5329 9.9125 10.5897 9.81711 10.6479C9.62763 10.7642 9.44077 10.8896 9.26175 11.0248C9.25943 11.027 9.25671 11.0287 9.25373 11.0299C9.25075 11.031 9.24758 11.0315 9.2444 11.0315C9.23796 11.0313 9.23187 11.0285 9.22745 11.0239C9.22303 11.0192 9.22065 11.0129 9.22084 11.0065C9.22102 11.0001 9.22375 10.994 9.22843 10.9896H9.22778Z" fill="#182DEF"/>
<path d="M12.1197 8.31663L11.955 8.67402L11.9289 8.53355C12.2987 8.7962 12.6619 9.06473 13.0174 9.34437C13.1951 9.48419 13.3708 9.62662 13.5401 9.77624C13.625 9.85138 13.7093 9.92782 13.7897 10.0082C13.8737 10.0876 13.9479 10.1769 14.0105 10.2741C14.011 10.276 14.011 10.2781 14.0105 10.28V10.2833C14.068 10.6426 14.1203 11.002 14.1647 11.3639C14.1856 11.5449 14.2065 11.7265 14.2209 11.9095C14.2274 12.0016 14.2339 12.0931 14.2359 12.1872C14.2408 12.2857 14.2371 12.3845 14.2248 12.4825L14.1412 12.3335L14.3836 12.5295C14.3862 12.5316 14.3884 12.5342 14.39 12.5371C14.3916 12.5401 14.3926 12.5433 14.393 12.5467C14.3934 12.55 14.3931 12.5534 14.3921 12.5566C14.3912 12.5598 14.3896 12.5628 14.3875 12.5654C14.385 12.5683 14.382 12.5705 14.3786 12.5721C14.3753 12.5737 14.3716 12.5745 14.3679 12.5746H14.0549C14.0421 12.5746 14.0297 12.5704 14.0195 12.5626C14.0093 12.5548 14.002 12.5438 13.9987 12.5315L13.9706 12.425C13.9881 12.3439 13.9988 12.2615 14.0027 12.1787C14.0092 12.0911 14.0111 12.0016 14.0138 11.9121C14.0138 11.7331 14.0138 11.5521 14.0105 11.3711C14.002 11.0098 13.985 10.6472 13.9621 10.2852V10.2944C13.897 10.2054 13.8216 10.1245 13.7374 10.0533C13.6538 9.97878 13.5669 9.90822 13.476 9.83897C13.2996 9.70045 13.1173 9.56847 12.9331 9.43911C12.5646 9.18168 12.1876 8.93406 11.808 8.69493L11.7806 8.66748C11.7658 8.65266 11.7574 8.63257 11.7574 8.61162C11.7574 8.59067 11.7658 8.57058 11.7806 8.55576L12.0674 8.28657C12.072 8.28206 12.0782 8.27954 12.0847 8.27954C12.0912 8.27954 12.0974 8.28206 12.102 8.28657C12.1052 8.28733 12.1082 8.28872 12.1108 8.29066C12.1134 8.2926 12.1156 8.29504 12.1172 8.29785C12.1189 8.30065 12.1199 8.30376 12.1204 8.30699C12.1208 8.31022 12.1205 8.3135 12.1197 8.31663Z" fill="#182DEF"/>
<path d="M14.4546 6.42255L13.9973 6.48789L14.0894 6.39838C14.0789 6.54669 14.0646 6.69174 14.0476 6.83809C14.0306 6.98444 14.0123 7.12949 13.9888 7.27454C13.9652 7.41958 13.9404 7.56463 13.9071 7.70837C13.876 7.85266 13.834 7.9944 13.7816 8.1324C13.7795 8.13847 13.775 8.14342 13.7692 8.14618C13.7634 8.14894 13.7567 8.14927 13.7506 8.1471C13.7445 8.14494 13.7396 8.14045 13.7368 8.13463C13.7341 8.12881 13.7337 8.12213 13.7359 8.11607C13.7765 7.97762 13.8067 7.83631 13.8261 7.69334C13.8476 7.55025 13.862 7.40586 13.8731 7.26147C13.8842 7.11707 13.8927 6.97268 13.8979 6.82764C13.9032 6.68259 13.9058 6.53689 13.9051 6.3938L13.9104 6.36636C13.9133 6.3462 13.924 6.32801 13.9403 6.31577C13.9566 6.30353 13.9771 6.29823 13.9973 6.30102L14.4546 6.36636C14.4611 6.36733 14.4669 6.37083 14.4709 6.37609C14.4748 6.38136 14.4765 6.38796 14.4755 6.39446C14.4765 6.40095 14.4748 6.40755 14.4709 6.41282C14.4669 6.41808 14.4611 6.42158 14.4546 6.42255Z" fill="#182DEF"/>
<path d="M6.22217 9.15426L6.77688 7.11577C6.7827 7.09434 6.79674 7.07608 6.81595 7.06495C6.83515 7.05382 6.85797 7.05071 6.87946 7.05631C6.90083 7.06238 6.91907 7.07641 6.93042 7.09551L7.87649 8.72435L7.85558 8.71324L9.73661 8.57211C9.76465 8.57025 9.79257 8.5772 9.81645 8.592C9.84034 8.6068 9.85899 8.6287 9.8698 8.65464C9.88061 8.68058 9.88303 8.70925 9.87672 8.73663C9.87041 8.76401 9.85569 8.78873 9.83462 8.80732L8.39722 10.065L8.40245 10.0383L9.28645 11.8422C9.29723 11.8661 9.30058 11.8927 9.29607 11.9185C9.29156 11.9443 9.27939 11.9681 9.26114 11.987C9.2429 12.0058 9.21942 12.0186 9.19375 12.0239C9.16809 12.0292 9.14143 12.0267 9.11723 12.0166L7.31133 11.1967L7.33616 11.1921L5.84845 12.5642C5.83428 12.5765 5.81665 12.5841 5.79799 12.5859C5.77933 12.5878 5.76054 12.5838 5.74421 12.5746C5.72789 12.5654 5.71482 12.5513 5.70681 12.5343C5.6988 12.5174 5.69624 12.4984 5.69948 12.4799L6.05034 10.5603L6.06537 10.5864L4.35551 10.0324C4.3233 10.0213 4.29667 9.99815 4.28129 9.96777C4.26591 9.93738 4.26301 9.90219 4.27319 9.86969C4.27942 9.85075 4.2899 9.83348 4.30383 9.81921C4.31776 9.80494 4.33477 9.79405 4.35355 9.78737C4.96249 9.58025 5.5858 9.37379 6.22217 9.15426ZM6.25745 9.18758L4.45287 10.0317V9.78672L6.08627 10.542C6.09112 10.5441 6.09516 10.5477 6.09775 10.5523C6.10035 10.5569 6.10137 10.5622 6.10065 10.5675L5.87916 12.5073L5.72823 12.4237L7.3048 11.1555C7.30798 11.1528 7.31183 11.1509 7.31595 11.1501C7.32007 11.1493 7.32434 11.1496 7.32832 11.1509L9.21327 11.7697L9.0447 11.9454L8.35932 10.0572C8.35785 10.0527 8.35755 10.0478 8.35847 10.0431C8.35938 10.0384 8.36147 10.0341 8.36455 10.0304L9.64188 8.61197L9.74053 8.84718L7.85558 8.76159C7.85152 8.76134 7.84758 8.76015 7.84406 8.7581C7.84055 8.75606 7.83756 8.75323 7.83533 8.74983L6.78995 7.18568L6.94087 7.16281L6.25745 9.18758Z" fill="#182DEF"/>
<path d="M15.4184 8.91383C15.4148 8.90539 15.412 8.89665 15.4099 8.8877L15.4067 8.87332L15.3995 8.84458L15.3851 8.78708L15.3544 8.67274C15.3341 8.5963 15.3119 8.51986 15.2891 8.44407C15.2433 8.29314 15.1924 8.14352 15.1362 7.99651C15.0814 7.84975 15.0175 7.7066 14.9447 7.56791C14.8768 7.43173 14.7901 7.30572 14.6873 7.19353L14.818 7.1491L14.5939 8.69626C14.5929 8.70215 14.5897 8.70746 14.585 8.7111C14.5803 8.71474 14.5743 8.71644 14.5684 8.71586H13.2368L13.3022 8.51986C13.4329 8.61067 13.5583 8.70345 13.6831 8.79949C13.8079 8.89554 13.9294 8.9955 14.0483 9.09808C14.1681 9.20087 14.2824 9.30992 14.3907 9.42476C14.5027 9.53778 14.5992 9.66522 14.6775 9.80371C14.6778 9.80501 14.6778 9.80634 14.6775 9.80763C14.7219 9.96902 14.7566 10.1343 14.786 10.2957C14.8154 10.4571 14.8389 10.6224 14.8559 10.7916C14.8729 10.9608 14.8853 11.1255 14.8885 11.2927C14.8918 11.46 14.8885 11.6292 14.88 11.7978L14.7193 11.7181C14.7997 11.6527 14.8807 11.5789 14.9598 11.507C15.0388 11.4352 15.1166 11.362 15.193 11.2868C15.2695 11.2117 15.3439 11.1359 15.4152 11.0562C15.4872 10.9785 15.5528 10.895 15.6112 10.8066C15.6149 10.8013 15.6205 10.7977 15.6268 10.7965C15.6332 10.7952 15.6397 10.7965 15.6451 10.8001L15.6497 10.804C15.8356 11.004 16.0101 11.2143 16.1724 11.4339C16.2545 11.5446 16.3304 11.6597 16.3998 11.7788C16.476 11.9017 16.5318 12.036 16.5651 12.1767L16.3972 12.1865C16.4057 12.0225 16.4043 11.8514 16.3972 11.6841C16.39 11.5168 16.3736 11.347 16.3508 11.1797C16.3277 11.0123 16.2954 10.8463 16.2541 10.6825C16.2124 10.5187 16.1589 10.3582 16.094 10.2023C16.0924 10.1978 16.092 10.193 16.0928 10.1883C16.0936 10.1836 16.0956 10.1792 16.0986 10.1755C16.175 10.0861 16.2468 9.99273 16.3135 9.89584C16.3462 9.84814 16.3789 9.79914 16.403 9.75014C16.4275 9.70847 16.4439 9.6626 16.4514 9.61489L16.4743 9.69134C16.4027 9.61061 16.327 9.53363 16.2475 9.4607C16.1674 9.38621 16.0838 9.31587 15.9966 9.24966C15.9099 9.18305 15.8194 9.12153 15.7255 9.06541C15.6778 9.03797 15.6301 9.01053 15.5811 8.98701L15.5445 8.96872L15.5027 8.94977L15.4184 8.91383ZM15.455 8.88182L15.5295 8.90273L15.5654 8.91383L15.6046 8.92886C15.6582 8.94846 15.7098 8.97133 15.7614 8.9942C15.8638 9.04239 15.9633 9.09649 16.0594 9.15623C16.1554 9.21569 16.2488 9.28037 16.3397 9.34832C16.4305 9.41736 16.5178 9.49107 16.601 9.56916L16.6049 9.57308C16.6146 9.58231 16.6215 9.59405 16.6248 9.60697C16.6281 9.6199 16.6278 9.6335 16.6239 9.64625C16.6182 9.66586 16.6112 9.68507 16.603 9.70375C16.5951 9.71943 16.5873 9.73642 16.5781 9.75079L16.5507 9.79261L16.5213 9.83115C16.4825 9.87935 16.441 9.92537 16.3972 9.96901C16.3119 10.0542 16.2223 10.1349 16.1286 10.2108L16.1339 10.1833C16.2093 10.3381 16.2735 10.4982 16.3259 10.6622C16.3787 10.8267 16.4223 10.994 16.4566 11.1634C16.4899 11.3319 16.5161 11.5031 16.5344 11.6743C16.5527 11.8455 16.5644 12.0173 16.5657 12.197C16.5658 12.208 16.5637 12.219 16.5595 12.2292C16.5554 12.2394 16.5492 12.2487 16.5415 12.2565C16.5337 12.2644 16.5244 12.2706 16.5143 12.2748C16.5041 12.2791 16.4931 12.2813 16.4821 12.2813C16.4628 12.2817 16.444 12.2754 16.4289 12.2635C16.4137 12.2516 16.4032 12.2348 16.3991 12.2159V12.2087C16.3776 12.0836 16.3366 11.9625 16.2776 11.85C16.2188 11.7302 16.1533 11.6137 16.0816 11.5012C15.9385 11.2731 15.7828 11.0532 15.6151 10.8426L15.6543 10.838C15.6046 10.9358 15.5469 11.0293 15.4818 11.1176C15.4165 11.2065 15.3511 11.2921 15.2825 11.379C15.2139 11.4659 15.1434 11.5462 15.0715 11.6273C14.9996 11.7083 14.9264 11.7893 14.8506 11.869L14.8467 11.867C14.8322 11.8795 14.8143 11.8872 14.7952 11.8893C14.7762 11.8915 14.757 11.8878 14.7401 11.8788C14.7232 11.8699 14.7094 11.8561 14.7004 11.8392C14.6915 11.8223 14.6878 11.8031 14.6899 11.7841C14.7102 11.6227 14.7278 11.4574 14.7337 11.2966C14.7396 11.1359 14.7428 10.97 14.737 10.8053C14.7311 10.6407 14.7206 10.4786 14.7036 10.3127C14.6867 10.1467 14.6631 9.986 14.6311 9.82462V9.8305C14.5445 9.70414 14.4412 9.59008 14.324 9.49141C14.2088 9.3895 14.0884 9.29355 13.9634 9.20393C13.8379 9.11376 13.7103 9.02665 13.5805 8.94258C13.4498 8.8596 13.3192 8.77793 13.1885 8.7028L13.1774 8.69496C13.1584 8.68144 13.1445 8.66198 13.1379 8.63967C13.1312 8.61735 13.1322 8.59346 13.1407 8.57178C13.1492 8.55009 13.1647 8.53186 13.1847 8.51997C13.2047 8.50808 13.2281 8.50321 13.2512 8.50613L14.5756 8.66948L14.5501 8.69104L14.6684 7.13211V7.12885C14.6707 7.10966 14.6803 7.09211 14.6953 7.07992C14.7103 7.06773 14.7295 7.06185 14.7487 7.06351C14.759 7.06411 14.769 7.06687 14.7781 7.0716C14.7872 7.07632 14.7952 7.08292 14.8016 7.09095C14.9086 7.21885 14.9966 7.36143 15.063 7.51433C15.1299 7.66107 15.1875 7.81186 15.2355 7.9658C15.2847 8.11869 15.3283 8.27267 15.3662 8.42773C15.3851 8.50548 15.4034 8.58323 15.4197 8.66098L15.4439 8.77859L15.455 8.83739L15.4609 8.86679V8.88117C15.4609 8.88117 15.457 8.87986 15.455 8.88182Z" fill="#182DEF"/>
</g>
</svg>
