<svg width="48" height="48" viewBox="0 0 48 48" fill="none" xmlns="http://www.w3.org/2000/svg">
<path d="M0 4.8C0 2.14903 2.14903 0 4.8 0H43.2C45.851 0 48 2.14903 48 4.8V43.2C48 45.851 45.851 48 43.2 48H4.8C2.14903 48 0 45.851 0 43.2V4.8Z" fill="#182DEF"/>
<path fill-rule="evenodd" clip-rule="evenodd" d="M43.2 0.48H4.8C2.41413 0.48 0.48 2.41413 0.48 4.8V43.2C0.48 45.5859 2.41413 47.52 4.8 47.52H43.2C45.5859 47.52 47.52 45.5859 47.52 43.2V4.8C47.52 2.41413 45.5859 0.48 43.2 0.48ZM4.8 0C2.14903 0 0 2.14903 0 4.8V43.2C0 45.851 2.14903 48 4.8 48H43.2C45.851 48 48 45.851 48 43.2V4.8C48 2.14903 45.851 0 43.2 0H4.8Z" fill="#262947"/>
<path d="M40.8 24C40.8 33.2783 33.2784 40.8 24 40.8C14.7216 40.8 7.20001 33.2783 7.20001 24C7.20001 14.7216 14.7216 7.19995 24 7.19995C33.2784 7.19995 40.8 14.7216 40.8 24Z" fill="#8A96FF"/>
<path fill-rule="evenodd" clip-rule="evenodd" d="M24 40.32C33.0133 40.32 40.32 33.0132 40.32 24C40.32 14.9867 33.0133 7.67995 24 7.67995C14.9867 7.67995 7.68001 14.9867 7.68001 24C7.68001 33.0132 14.9867 40.32 24 40.32ZM24 40.8C33.2784 40.8 40.8 33.2783 40.8 24C40.8 14.7216 33.2784 7.19995 24 7.19995C14.7216 7.19995 7.20001 14.7216 7.20001 24C7.20001 33.2783 14.7216 40.8 24 40.8Z" fill="#202761"/>
<path d="M38.4 24.0001C38.4 31.953 31.9529 38.4001 24 38.4001C16.0471 38.4001 9.60001 31.953 9.60001 24.0001C9.60001 16.0472 16.0471 9.6001 24 9.6001C31.9529 9.6001 38.4 16.0472 38.4 24.0001Z" fill="#0A114E"/>
<path fill-rule="evenodd" clip-rule="evenodd" d="M24 37.8001C31.6215 37.8001 37.8 31.6216 37.8 24.0001C37.8 16.3785 31.6215 10.2001 24 10.2001C16.3785 10.2001 10.2 16.3785 10.2 24.0001C10.2 31.6216 16.3785 37.8001 24 37.8001ZM24 37.9201C31.6878 37.9201 37.92 31.6879 37.92 24.0001C37.92 16.3123 31.6878 10.0801 24 10.0801C16.3122 10.0801 10.08 16.3123 10.08 24.0001C10.08 31.6879 16.3122 37.9201 24 37.9201Z" fill="#232C7D"/>
<path fill-rule="evenodd" clip-rule="evenodd" d="M24 37.5598C31.489 37.5598 37.56 31.4888 37.56 23.9998C37.56 16.5108 31.489 10.4398 24 10.4398C16.511 10.4398 10.44 16.5108 10.44 23.9998C10.44 31.4888 16.511 37.5598 24 37.5598ZM24 37.6798C31.5553 37.6798 37.68 31.5551 37.68 23.9998C37.68 16.4446 31.5553 10.3198 24 10.3198C16.4448 10.3198 10.32 16.4446 10.32 23.9998C10.32 31.5551 16.4448 37.6798 24 37.6798Z" fill="#232C7D"/>
<path fill-rule="evenodd" clip-rule="evenodd" d="M24 37.3201C31.3565 37.3201 37.32 31.3565 37.32 24.0001C37.32 16.6436 31.3565 10.6801 24 10.6801C16.6436 10.6801 10.68 16.6436 10.68 24.0001C10.68 31.3565 16.6436 37.3201 24 37.3201ZM24 37.4401C31.4227 37.4401 37.44 31.4228 37.44 24.0001C37.44 16.5774 31.4227 10.5601 24 10.5601C16.5773 10.5601 10.56 16.5774 10.56 24.0001C10.56 31.4228 16.5773 37.4401 24 37.4401Z" fill="#232C7D"/>
<path fill-rule="evenodd" clip-rule="evenodd" d="M24 37.0863C31.2273 37.0863 37.0862 31.2274 37.0862 24C37.0862 16.7727 31.2273 10.9138 24 10.9138C16.7727 10.9138 10.9138 16.7727 10.9138 24C10.9138 31.2274 16.7727 37.0863 24 37.0863ZM24 37.2C31.2902 37.2 37.2 31.2902 37.2 24C37.2 16.7099 31.2902 10.8 24 10.8C16.7099 10.8 10.8 16.7099 10.8 24C10.8 31.2902 16.7099 37.2 24 37.2Z" fill="#232C7D"/>
<path fill-rule="evenodd" clip-rule="evenodd" d="M24 36.8586C31.1016 36.8586 36.8586 31.1016 36.8586 24C36.8586 16.8984 31.1016 11.1414 24 11.1414C16.8984 11.1414 11.1414 16.8984 11.1414 24C11.1414 31.1016 16.8984 36.8586 24 36.8586ZM24 36.9724C31.1645 36.9724 36.9724 31.1645 36.9724 24C36.9724 16.8355 31.1645 11.0276 24 11.0276C16.8355 11.0276 11.0276 16.8355 11.0276 24C11.0276 31.1645 16.8355 36.9724 24 36.9724Z" fill="#232C7D"/>
<path fill-rule="evenodd" clip-rule="evenodd" d="M24 36.631C30.9759 36.631 36.631 30.9759 36.631 24C36.631 17.024 30.9759 11.3689 24 11.3689C17.0241 11.3689 11.369 17.024 11.369 24C11.369 30.9759 17.0241 36.631 24 36.631ZM24 36.7448C31.0388 36.7448 36.7448 31.0387 36.7448 24C36.7448 16.9612 31.0388 11.2551 24 11.2551C16.9612 11.2551 11.2552 16.9612 11.2552 24C11.2552 31.0387 16.9612 36.7448 24 36.7448Z" fill="#232C7D"/>
<path fill-rule="evenodd" clip-rule="evenodd" d="M24 36.6104C30.9645 36.6104 36.6103 30.9645 36.6103 24C36.6103 17.0355 30.9645 11.3897 24 11.3897C17.0355 11.3897 11.3897 17.0355 11.3897 24C11.3897 30.9645 17.0355 36.6104 24 36.6104ZM24 36.72C31.0251 36.72 36.72 31.0251 36.72 24C36.72 16.975 31.0251 11.28 24 11.28C16.9749 11.28 11.28 16.975 11.28 24C11.28 31.0251 16.9749 36.72 24 36.72Z" fill="#232C7D"/>
<path fill-rule="evenodd" clip-rule="evenodd" d="M24 36.3911C30.8434 36.3911 36.3911 30.8435 36.3911 24.0001C36.3911 17.1567 30.8434 11.609 24 11.609C17.1566 11.609 11.609 17.1567 11.609 24.0001C11.609 30.8435 17.1566 36.3911 24 36.3911ZM24 36.5008C30.904 36.5008 36.5007 30.904 36.5007 24.0001C36.5007 17.0961 30.904 11.4994 24 11.4994C17.0961 11.4994 11.4993 17.0961 11.4993 24.0001C11.4993 30.904 17.0961 36.5008 24 36.5008Z" fill="#232C7D"/>
<path fill-rule="evenodd" clip-rule="evenodd" d="M24 36.1716C30.7223 36.1716 36.1717 30.7221 36.1717 23.9999C36.1717 17.2776 30.7223 11.8282 24 11.8282C17.2777 11.8282 11.8283 17.2776 11.8283 23.9999C11.8283 30.7221 17.2777 36.1716 24 36.1716ZM24 36.2813C30.7828 36.2813 36.2814 30.7827 36.2814 23.9999C36.2814 17.2171 30.7828 11.7185 24 11.7185C17.2172 11.7185 11.7186 17.2171 11.7186 23.9999C11.7186 30.7827 17.2172 36.2813 24 36.2813Z" fill="#232C7D"/>
<path fill-rule="evenodd" clip-rule="evenodd" d="M24 35.9581C30.6043 35.9581 35.9581 30.6043 35.9581 24.0001C35.9581 17.3958 30.6043 12.042 24 12.042C17.3958 12.042 12.0419 17.3958 12.0419 24.0001C12.0419 30.6043 17.3958 35.9581 24 35.9581ZM24 36.0621C30.6617 36.0621 36.0621 30.6618 36.0621 24.0001C36.0621 17.3384 30.6617 11.938 24 11.938C17.3383 11.938 11.938 17.3384 11.938 24.0001C11.938 30.6618 17.3383 36.0621 24 36.0621Z" fill="#232C7D"/>
<path fill-rule="evenodd" clip-rule="evenodd" d="M24 35.7502C30.4894 35.7502 35.7501 30.4895 35.7501 24.0001C35.7501 17.5107 30.4894 12.25 24 12.25C17.5106 12.25 12.2499 17.5107 12.2499 24.0001C12.2499 30.4895 17.5106 35.7502 24 35.7502ZM24 35.8542C30.5468 35.8542 35.8541 30.5469 35.8541 24.0001C35.8541 17.4533 30.5468 12.146 24 12.146C17.4531 12.146 12.1459 17.4533 12.1459 24.0001C12.1459 30.5469 17.4531 35.8542 24 35.8542Z" fill="#232C7D"/>
<path fill-rule="evenodd" clip-rule="evenodd" d="M24 35.5422C30.3746 35.5422 35.5422 30.3746 35.5422 24C35.5422 17.6255 30.3746 12.4579 24 12.4579C17.6255 12.4579 12.4579 17.6255 12.4579 24C12.4579 30.3746 17.6255 35.5422 24 35.5422ZM24 35.6462C30.432 35.6462 35.6462 30.432 35.6462 24C35.6462 17.568 30.432 12.3539 24 12.3539C17.568 12.3539 12.3539 17.568 12.3539 24C12.3539 30.432 17.568 35.6462 24 35.6462Z" fill="#232C7D"/>
<path fill-rule="evenodd" clip-rule="evenodd" d="M24 35.4207C30.3075 35.4207 35.4207 30.3075 35.4207 24C35.4207 17.6925 30.3075 12.5793 24 12.5793C17.6925 12.5793 12.5793 17.6925 12.5793 24C12.5793 30.3075 17.6925 35.4207 24 35.4207ZM24 35.52C30.3623 35.52 35.52 30.3623 35.52 24C35.52 17.6377 30.3623 12.48 24 12.48C17.6377 12.48 12.48 17.6377 12.48 24C12.48 30.3623 17.6377 35.52 24 35.52Z" fill="#232C7D"/>
<path fill-rule="evenodd" clip-rule="evenodd" d="M24 35.2222C30.1978 35.2222 35.2221 30.1979 35.2221 24.0001C35.2221 17.8023 30.1978 12.778 24 12.778C17.8023 12.778 12.778 17.8023 12.778 24.0001C12.778 30.1979 17.8023 35.2222 24 35.2222ZM24 35.3215C30.2527 35.3215 35.3214 30.2527 35.3214 24.0001C35.3214 17.7475 30.2527 12.6787 24 12.6787C17.7474 12.6787 12.6786 17.7475 12.6786 24.0001C12.6786 30.2527 17.7474 35.3215 24 35.3215Z" fill="#232C7D"/>
<path fill-rule="evenodd" clip-rule="evenodd" d="M24 35.0236C30.0881 35.0236 35.0235 30.0883 35.0235 24.0002C35.0235 17.9121 30.0881 12.9768 24 12.9768C17.912 12.9768 12.9766 17.9121 12.9766 24.0002C12.9766 30.0883 17.912 35.0236 24 35.0236ZM24 35.123C30.143 35.123 35.1228 30.1431 35.1228 24.0002C35.1228 17.8573 30.143 12.8774 24 12.8774C17.8571 12.8774 12.8773 17.8573 12.8773 24.0002C12.8773 30.1431 17.8571 35.123 24 35.123Z" fill="#232C7D"/>
<path fill-rule="evenodd" clip-rule="evenodd" d="M24 34.83C29.9812 34.83 34.8299 29.9813 34.8299 24.0001C34.8299 18.0188 29.9812 13.1701 24 13.1701C18.0188 13.1701 13.17 18.0188 13.17 24.0001C13.17 29.9813 18.0188 34.83 24 34.83ZM24 34.9242C30.0332 34.9242 34.9241 30.0333 34.9241 24.0001C34.9241 17.9668 30.0332 13.0759 24 13.0759C17.9667 13.0759 13.0758 17.9668 13.0758 24.0001C13.0758 30.0333 17.9667 34.9242 24 34.9242Z" fill="#232C7D"/>
<path fill-rule="evenodd" clip-rule="evenodd" d="M24 34.6416C29.8772 34.6416 34.6416 29.8772 34.6416 24C34.6416 18.1227 29.8772 13.3583 24 13.3583C18.1228 13.3583 13.3584 18.1227 13.3584 24C13.3584 29.8772 18.1228 34.6416 24 34.6416ZM24 34.7357C29.9292 34.7357 34.7358 29.9292 34.7358 24C34.7358 18.0707 29.9292 13.2642 24 13.2642C18.0708 13.2642 13.2642 18.0707 13.2642 24C13.2642 29.9292 18.0708 34.7357 24 34.7357Z" fill="#232C7D"/>
<path fill-rule="evenodd" clip-rule="evenodd" d="M24 34.4534C29.7732 34.4534 34.4533 29.7733 34.4533 24.0001C34.4533 18.2269 29.7732 13.5468 24 13.5468C18.2268 13.5468 13.5467 18.2269 13.5467 24.0001C13.5467 29.7733 18.2268 34.4534 24 34.4534ZM24 34.5475C29.8252 34.5475 34.5475 29.8253 34.5475 24.0001C34.5475 18.1749 29.8252 13.4526 24 13.4526C18.1748 13.4526 13.4526 18.1749 13.4526 24.0001C13.4526 29.8253 18.1748 34.5475 24 34.5475Z" fill="#232C7D"/>
<path fill-rule="evenodd" clip-rule="evenodd" d="M24 34.4362C29.7637 34.4362 34.4362 29.7638 34.4362 24C34.4362 18.2363 29.7637 13.5639 24 13.5639C18.2363 13.5639 13.5639 18.2363 13.5639 24C13.5639 29.7638 18.2363 34.4362 24 34.4362ZM24 34.5269C29.8139 34.5269 34.5269 29.8139 34.5269 24C34.5269 18.1862 29.8139 13.4731 24 13.4731C18.1862 13.4731 13.4731 18.1862 13.4731 24C13.4731 29.8139 18.1862 34.5269 24 34.5269Z" fill="#232C7D"/>
<path fill-rule="evenodd" clip-rule="evenodd" d="M24 34.2546C29.6635 34.2546 34.2547 29.6634 34.2547 23.9999C34.2547 18.3365 29.6635 13.7453 24 13.7453C18.3365 13.7453 13.7454 18.3365 13.7454 23.9999C13.7454 29.6634 18.3365 34.2546 24 34.2546ZM24 34.3453C29.7136 34.3453 34.3454 29.7135 34.3454 23.9999C34.3454 18.2863 29.7136 13.6545 24 13.6545C18.2864 13.6545 13.6546 18.2863 13.6546 23.9999C13.6546 29.7135 18.2864 34.3453 24 34.3453Z" fill="#232C7D"/>
<path fill-rule="evenodd" clip-rule="evenodd" d="M24 34.0732C29.5632 34.0732 34.0731 29.5633 34.0731 24.0001C34.0731 18.4368 29.5632 13.9269 24 13.9269C18.4367 13.9269 13.9268 18.4368 13.9268 24.0001C13.9268 29.5633 18.4367 34.0732 24 34.0732ZM24 34.164C29.6134 34.164 34.1639 29.6134 34.1639 24.0001C34.1639 18.3867 29.6134 13.8362 24 13.8362C18.3866 13.8362 13.8361 18.3867 13.8361 24.0001C13.8361 29.6134 18.3866 34.164 24 34.164Z" fill="#232C7D"/>
<path fill-rule="evenodd" clip-rule="evenodd" d="M24 33.8963C29.4656 33.8963 33.8963 29.4656 33.8963 24C33.8963 18.5344 29.4656 14.1036 24 14.1036C18.5344 14.1036 14.1036 18.5344 14.1036 24C14.1036 29.4656 18.5344 33.8963 24 33.8963ZM24 33.9824C29.5131 33.9824 33.9824 29.5131 33.9824 24C33.9824 18.4869 29.5131 14.0176 24 14.0176C18.4869 14.0176 14.0176 18.4869 14.0176 24C14.0176 29.5131 18.4869 33.9824 24 33.9824Z" fill="#232C7D"/>
<path fill-rule="evenodd" clip-rule="evenodd" d="M24 33.7243C29.3705 33.7243 33.7242 29.3707 33.7242 24.0001C33.7242 18.6296 29.3705 14.2759 24 14.2759C18.6294 14.2759 14.2757 18.6296 14.2757 24.0001C14.2757 29.3707 18.6294 33.7243 24 33.7243ZM24 33.8104C29.418 33.8104 33.8102 29.4182 33.8102 24.0001C33.8102 18.582 29.418 14.1898 24 14.1898C18.5819 14.1898 14.1897 18.582 14.1897 24.0001C14.1897 29.4182 18.5819 33.8104 24 33.8104Z" fill="#232C7D"/>
<path fill-rule="evenodd" clip-rule="evenodd" d="M24 33.5521C29.2755 33.5521 33.5521 29.2755 33.5521 24C33.5521 18.7245 29.2755 14.4479 24 14.4479C18.7245 14.4479 14.4478 18.7245 14.4478 24C14.4478 29.2755 18.7245 33.5521 24 33.5521ZM24 33.6382C29.323 33.6382 33.6381 29.323 33.6381 24C33.6381 18.677 29.323 14.3618 24 14.3618C18.6769 14.3618 14.3618 18.677 14.3618 24C14.3618 29.323 18.6769 33.6382 24 33.6382Z" fill="#232C7D"/>
<path fill-rule="evenodd" clip-rule="evenodd" d="M24 33.5171C29.2562 33.5171 33.5172 29.2561 33.5172 23.9999C33.5172 18.7437 29.2562 14.4827 24 14.4827C18.7438 14.4827 14.4828 18.7437 14.4828 23.9999C14.4828 29.2561 18.7438 33.5171 24 33.5171ZM24 33.5999C29.3019 33.5999 33.6 29.3018 33.6 23.9999C33.6 18.698 29.3019 14.3999 24 14.3999C18.6981 14.3999 14.4 18.698 14.4 23.9999C14.4 29.3018 18.6981 33.5999 24 33.5999Z" fill="#232C7D"/>
<path fill-rule="evenodd" clip-rule="evenodd" d="M24 33.3518C29.1648 33.3518 33.3517 29.1648 33.3517 24C33.3517 18.8352 29.1648 14.6483 24 14.6483C18.8352 14.6483 14.6483 18.8352 14.6483 24C14.6483 29.1648 18.8352 33.3518 24 33.3518ZM24 33.4345C29.2105 33.4345 33.4345 29.2106 33.4345 24C33.4345 18.7895 29.2105 14.5656 24 14.5656C18.7895 14.5656 14.5655 18.7895 14.5655 24C14.5655 29.2106 18.7895 33.4345 24 33.4345Z" fill="#232C7D"/>
<path fill-rule="evenodd" clip-rule="evenodd" d="M24 33.1861C29.0734 33.1861 33.1862 29.0733 33.1862 23.9999C33.1862 18.9265 29.0734 14.8137 24 14.8137C18.9266 14.8137 14.8138 18.9265 14.8138 23.9999C14.8138 29.0733 18.9266 33.1861 24 33.1861ZM24 33.2689C29.1191 33.2689 33.269 29.119 33.269 23.9999C33.269 18.8808 29.1191 14.731 24 14.731C18.8809 14.731 14.731 18.8808 14.731 23.9999C14.731 29.119 18.8809 33.2689 24 33.2689Z" fill="#232C7D"/>
<path fill-rule="evenodd" clip-rule="evenodd" d="M24 33.0249C28.9843 33.0249 33.025 28.9843 33.025 23.9999C33.025 19.0156 28.9843 14.975 24 14.975C19.0156 14.975 14.975 19.0156 14.975 23.9999C14.975 28.9843 19.0156 33.0249 24 33.0249ZM24 33.1034C29.0277 33.1034 33.1034 29.0276 33.1034 23.9999C33.1034 18.9722 29.0277 14.8965 24 14.8965C18.9723 14.8965 14.8965 18.9722 14.8965 23.9999C14.8965 29.0276 18.9723 33.1034 24 33.1034Z" fill="#232C7D"/>
<path fill-rule="evenodd" clip-rule="evenodd" d="M24 32.868C28.8977 32.868 32.868 28.8976 32.868 24C32.868 19.1023 28.8977 15.1319 24 15.1319C19.1023 15.1319 15.132 19.1023 15.132 24C15.132 28.8976 19.1023 32.868 24 32.868ZM24 32.9465C28.941 32.9465 32.9465 28.941 32.9465 24C32.9465 19.0589 28.941 15.0535 24 15.0535C19.059 15.0535 15.0535 19.0589 15.0535 24C15.0535 28.941 19.059 32.9465 24 32.9465Z" fill="#232C7D"/>
<path fill-rule="evenodd" clip-rule="evenodd" d="M24 32.711C28.811 32.711 32.7111 28.811 32.7111 24C32.7111 19.189 28.811 15.2889 24 15.2889C19.189 15.2889 15.289 19.189 15.289 24C15.289 28.811 19.189 32.711 24 32.711ZM24 32.7895C28.8543 32.7895 32.7896 28.8543 32.7896 24C32.7896 19.1457 28.8543 15.2104 24 15.2104C19.1457 15.2104 15.2105 19.1457 15.2105 24C15.2105 28.8543 19.1457 32.7895 24 32.7895Z" fill="#232C7D"/>
<path fill-rule="evenodd" clip-rule="evenodd" d="M24 32.6967C28.8031 32.6967 32.6968 28.8031 32.6968 24C32.6968 19.1968 28.8031 15.3032 24 15.3032C19.1969 15.3032 15.3032 19.1968 15.3032 24C15.3032 28.8031 19.1969 32.6967 24 32.6967ZM24 32.7724C28.8449 32.7724 32.7724 28.8448 32.7724 24C32.7724 19.1551 28.8449 15.2275 24 15.2275C19.1551 15.2275 15.2276 19.1551 15.2276 24C15.2276 28.8448 19.1551 32.7724 24 32.7724Z" fill="#232C7D"/>
<path fill-rule="evenodd" clip-rule="evenodd" d="M24 32.5456C28.7196 32.5456 32.5456 28.7196 32.5456 24.0001C32.5456 19.2805 28.7196 15.4545 24 15.4545C19.2804 15.4545 15.4545 19.2805 15.4545 24.0001C15.4545 28.7196 19.2804 32.5456 24 32.5456ZM24 32.6212C28.7614 32.6212 32.6212 28.7614 32.6212 24.0001C32.6212 19.2387 28.7614 15.3789 24 15.3789C19.2387 15.3789 15.3788 19.2387 15.3788 24.0001C15.3788 28.7614 19.2387 32.6212 24 32.6212Z" fill="#232C7D"/>
<path fill-rule="evenodd" clip-rule="evenodd" d="M24 32.3942C28.636 32.3942 32.3943 28.636 32.3943 23.9999C32.3943 19.3639 28.636 15.6057 24 15.6057C19.364 15.6057 15.6057 19.3639 15.6057 23.9999C15.6057 28.636 19.364 32.3942 24 32.3942ZM24 32.4699C28.6778 32.4699 32.4699 28.6778 32.4699 23.9999C32.4699 19.3221 28.6778 15.53 24 15.53C19.3222 15.53 15.5301 19.3221 15.5301 23.9999C15.5301 28.6778 19.3222 32.4699 24 32.4699Z" fill="#232C7D"/>
<path fill-rule="evenodd" clip-rule="evenodd" d="M24 32.2468C28.5547 32.2468 32.247 28.5545 32.247 23.9998C32.247 19.4452 28.5547 15.7529 24 15.7529C19.4453 15.7529 15.753 19.4452 15.753 23.9998C15.753 28.5545 19.4453 32.2468 24 32.2468ZM24 32.3185C28.5943 32.3185 32.3187 28.5941 32.3187 23.9998C32.3187 19.4055 28.5943 15.6812 24 15.6812C19.4057 15.6812 15.6813 19.4055 15.6813 23.9998C15.6813 28.5941 19.4057 32.3185 24 32.3185Z" fill="#232C7D"/>
<path fill-rule="evenodd" clip-rule="evenodd" d="M24 32.1035C28.4755 32.1035 32.1035 28.4754 32.1035 24C32.1035 19.5245 28.4755 15.8964 24 15.8964C19.5246 15.8964 15.8965 19.5245 15.8965 24C15.8965 28.4754 19.5246 32.1035 24 32.1035ZM24 32.1752C28.5151 32.1752 32.1753 28.515 32.1753 24C32.1753 19.4849 28.5151 15.8247 24 15.8247C19.4849 15.8247 15.8248 19.4849 15.8248 24C15.8248 28.515 19.4849 32.1752 24 32.1752Z" fill="#232C7D"/>
<path fill-rule="evenodd" clip-rule="evenodd" d="M24 31.9602C28.3963 31.9602 31.9601 28.3963 31.9601 24.0001C31.9601 19.6038 28.3963 16.04 24 16.04C19.6038 16.04 16.0399 19.6038 16.0399 24.0001C16.0399 28.3963 19.6038 31.9602 24 31.9602ZM24 32.0319C28.4359 32.0319 32.0318 28.4359 32.0318 24.0001C32.0318 19.5642 28.4359 15.9683 24 15.9683C19.5642 15.9683 15.9682 19.5642 15.9682 24.0001C15.9682 28.4359 19.5642 32.0319 24 32.0319Z" fill="#232C7D"/>
<path fill-rule="evenodd" clip-rule="evenodd" d="M24 31.8763C28.35 31.8763 31.8763 28.35 31.8763 24C31.8763 19.65 28.35 16.1237 24 16.1237C19.65 16.1237 16.1236 19.65 16.1236 24C16.1236 28.35 19.65 31.8763 24 31.8763ZM24 31.9448C28.3878 31.9448 31.9448 28.3878 31.9448 24C31.9448 19.6122 28.3878 16.0552 24 16.0552C19.6122 16.0552 16.0551 19.6122 16.0551 24C16.0551 28.3878 19.6122 31.9448 24 31.9448Z" fill="#232C7D"/>
<path fill-rule="evenodd" clip-rule="evenodd" d="M24 31.7393C28.2743 31.7393 31.7393 28.2743 31.7393 24C31.7393 19.7257 28.2743 16.2606 24 16.2606C19.7257 16.2606 16.2606 19.7257 16.2606 24C16.2606 28.2743 19.7257 31.7393 24 31.7393ZM24 31.8078C28.3121 31.8078 31.8078 28.3121 31.8078 24C31.8078 19.6878 28.3121 16.1921 24 16.1921C19.6878 16.1921 16.1921 19.6878 16.1921 24C16.1921 28.3121 19.6878 31.8078 24 31.8078Z" fill="#232C7D"/>
<path fill-rule="evenodd" clip-rule="evenodd" d="M24 31.6023C28.1987 31.6023 31.6024 28.1986 31.6024 24C31.6024 19.8013 28.1987 16.3976 24 16.3976C19.8013 16.3976 16.3976 19.8013 16.3976 24C16.3976 28.1986 19.8013 31.6023 24 31.6023ZM24 31.6708C28.2365 31.6708 31.6709 28.2365 31.6709 24C31.6709 19.7635 28.2365 16.3291 24 16.3291C19.7635 16.3291 16.3291 19.7635 16.3291 24C16.3291 28.2365 19.7635 31.6708 24 31.6708Z" fill="#232C7D"/>
<path fill-rule="evenodd" clip-rule="evenodd" d="M24 31.4691C28.1249 31.4691 31.4689 28.1252 31.4689 24.0002C31.4689 19.8752 28.1249 16.5313 24 16.5313C19.875 16.5313 16.531 19.8752 16.531 24.0002C16.531 28.1252 19.875 31.4691 24 31.4691ZM24 31.5341C28.1608 31.5341 31.5338 28.161 31.5338 24.0002C31.5338 19.8393 28.1608 16.4663 24 16.4663C19.8391 16.4663 16.4661 19.8393 16.4661 24.0002C16.4661 28.161 19.8391 31.5341 24 31.5341Z" fill="#232C7D"/>
<path fill-rule="evenodd" clip-rule="evenodd" d="M23.9999 31.3391C28.0532 31.3391 31.339 28.0533 31.339 24.0001C31.339 19.9468 28.0532 16.661 23.9999 16.661C19.9467 16.661 16.6609 19.9468 16.6609 24.0001C16.6609 28.0533 19.9467 31.3391 23.9999 31.3391ZM23.9999 31.4041C28.0891 31.4041 31.4039 28.0892 31.4039 24.0001C31.4039 19.9109 28.0891 16.5961 23.9999 16.5961C19.9108 16.5961 16.5959 19.9109 16.5959 24.0001C16.5959 28.0892 19.9108 31.4041 23.9999 31.4041Z" fill="#232C7D"/>
<path fill-rule="evenodd" clip-rule="evenodd" d="M24 31.2093C27.9815 31.2093 31.2091 27.9817 31.2091 24.0002C31.2091 20.0187 27.9815 16.791 24 16.791C20.0185 16.791 16.7908 20.0187 16.7908 24.0002C16.7908 27.9817 20.0185 31.2093 24 31.2093ZM24 31.2743C28.0173 31.2743 31.2741 28.0175 31.2741 24.0002C31.2741 19.9828 28.0173 16.7261 24 16.7261C19.9826 16.7261 16.7259 19.9828 16.7259 24.0002C16.7259 28.0175 19.9826 31.2743 24 31.2743Z" fill="#232C7D"/>
<path fill-rule="evenodd" clip-rule="evenodd" d="M24 31.1973C27.975 31.1973 31.1974 27.9749 31.1974 23.9999C31.1974 20.0249 27.975 16.8026 24 16.8026C20.025 16.8026 16.8027 20.0249 16.8027 23.9999C16.8027 27.9749 20.025 31.1973 24 31.1973ZM24 31.2598C28.0096 31.2598 31.2599 28.0095 31.2599 23.9999C31.2599 19.9904 28.0096 16.74 24 16.74C19.9905 16.74 16.7401 19.9904 16.7401 23.9999C16.7401 28.0095 19.9905 31.2598 24 31.2598Z" fill="#232C7D"/>
<path fill-rule="evenodd" clip-rule="evenodd" d="M24 31.0722C27.9059 31.0722 31.0722 27.9058 31.0722 24C31.0722 20.0941 27.9059 16.9278 24 16.9278C20.0942 16.9278 16.9279 20.0941 16.9279 24C16.9279 27.9058 20.0942 31.0722 24 31.0722ZM24 31.1348C27.9404 31.1348 31.1348 27.9404 31.1348 24C31.1348 20.0596 27.9404 16.8652 24 16.8652C20.0596 16.8652 16.8653 20.0596 16.8653 24C16.8653 27.9404 20.0596 31.1348 24 31.1348Z" fill="#232C7D"/>
<path fill-rule="evenodd" clip-rule="evenodd" d="M24 30.9471C27.8367 30.9471 30.947 27.8368 30.947 24.0001C30.947 20.1633 27.8367 17.0531 24 17.0531C20.1633 17.0531 17.053 20.1633 17.053 24.0001C17.053 27.8368 20.1633 30.9471 24 30.9471ZM24 31.0097C27.8713 31.0097 31.0096 27.8714 31.0096 24.0001C31.0096 20.1288 27.8713 16.9905 24 16.9905C20.1287 16.9905 16.9904 20.1288 16.9904 24.0001C16.9904 27.8714 20.1287 31.0097 24 31.0097Z" fill="#232C7D"/>
<path fill-rule="evenodd" clip-rule="evenodd" d="M24 30.8252C27.7694 30.8252 30.8251 27.7695 30.8251 24.0001C30.8251 20.2308 27.7694 17.1751 24 17.1751C20.2306 17.1751 17.1749 20.2308 17.1749 24.0001C17.1749 27.7695 20.2306 30.8252 24 30.8252ZM24 30.8846C27.8021 30.8846 30.8844 27.8023 30.8844 24.0001C30.8844 20.198 27.8021 17.1157 24 17.1157C20.1978 17.1157 17.1156 20.198 17.1156 24.0001C17.1156 27.8023 20.1978 30.8846 24 30.8846Z" fill="#232C7D"/>
<path fill-rule="evenodd" clip-rule="evenodd" d="M24 30.7065C27.7038 30.7065 30.7064 27.7039 30.7064 24.0001C30.7064 20.2963 27.7038 17.2937 24 17.2937C20.2962 17.2937 17.2936 20.2963 17.2936 24.0001C17.2936 27.7039 20.2962 30.7065 24 30.7065ZM24 30.7658C27.7366 30.7658 30.7657 27.7367 30.7657 24.0001C30.7657 20.2635 27.7366 17.2344 24 17.2344C20.2634 17.2344 17.2343 20.2635 17.2343 24.0001C17.2343 27.7367 20.2634 30.7658 24 30.7658Z" fill="#232C7D"/>
<path fill-rule="evenodd" clip-rule="evenodd" d="M24 30.5877C27.6383 30.5877 30.5877 27.6383 30.5877 24C30.5877 20.3618 27.6383 17.4124 24 17.4124C20.3617 17.4124 17.4123 20.3618 17.4123 24C17.4123 27.6383 20.3617 30.5877 24 30.5877ZM24 30.6471C27.671 30.6471 30.647 27.6711 30.647 24C30.647 20.329 27.671 17.353 24 17.353C20.3289 17.353 17.353 20.329 17.353 24C17.353 27.6711 20.3289 30.6471 24 30.6471Z" fill="#232C7D"/>
<path d="M33 24C33 28.9706 28.9706 33 24 33C19.0294 33 15 28.9706 15 24C15 19.0294 19.0294 15 24 15C28.9706 15 33 19.0294 33 24Z" fill="#EA3378"/>
<path fill-rule="evenodd" clip-rule="evenodd" d="M24 32.6538C28.7794 32.6538 32.6538 28.7794 32.6538 24C32.6538 19.2206 28.7794 15.3462 24 15.3462C19.2206 15.3462 15.3462 19.2206 15.3462 24C15.3462 28.7794 19.2206 32.6538 24 32.6538ZM24 33C28.9706 33 33 28.9706 33 24C33 19.0294 28.9706 15 24 15C19.0294 15 15 19.0294 15 24C15 28.9706 19.0294 33 24 33Z" fill="#46061E"/>
</svg>
